<svg width="203" height="22" viewBox="0 0 203 22" fill="none" xmlns="http://www.w3.org/2000/svg">
<path fill-rule="evenodd" clip-rule="evenodd" d="M42.7514 20.9545C42.7514 21.4192 42.4961 21.6515 41.9854 21.6515H32.9885C32.7712 21.6515 32.5946 21.5934 32.4588 21.4773C32.323 21.3611 32.2551 21.197 32.2551 20.9848C32.2551 20.803 32.3013 20.6566 32.3936 20.5455C32.486 20.4343 32.6299 20.3434 32.8255 20.2727L33.5264 20.0758C33.7002 20.0253 33.836 19.9293 33.9338 19.7879C34.0316 19.6465 34.0805 19.4444 34.0805 19.1818V10.4242C34.0805 10.2828 34.0425 10.1641 33.9664 10.0682C33.8904 9.97222 33.7491 9.88384 33.5427 9.80303L32.5974 9.51515C32.3474 9.40404 32.1682 9.28535 32.0595 9.15909C31.9508 9.03283 31.8965 8.87879 31.8965 8.69697C31.8965 8.51515 31.9644 8.36616 32.1002 8.25L32.1536 8.20916C32.2837 8.12023 32.4534 8.07576 32.6625 8.07576H34.0928L34.0815 7.98722C34.051 7.81013 33.9746 7.64015 33.8523 7.47727C33.6894 7.2601 33.5046 7.01515 33.2982 6.74242C33.0917 6.4697 32.907 6.14394 32.744 5.76515C32.5811 5.38636 32.4996 4.91919 32.4996 4.36364C32.4996 3.0404 32.9885 1.98232 33.9664 1.18939C34.9444 0.396465 36.3352 0 38.1389 0C39.3015 0 40.2659 0.171717 41.0319 0.515152C41.798 0.858586 42.3711 1.31566 42.7514 1.88636C43.1317 2.45707 43.3219 3.08081 43.3219 3.75758C43.3219 4.55556 43.0964 5.15404 42.6455 5.55303C42.1946 5.95202 41.616 6.15152 40.9097 6.15152C40.1273 6.15152 39.4971 5.91919 39.019 5.45455C38.5409 4.9899 38.3019 4.37374 38.3019 3.60606V2.25758C38.3019 1.90404 38.2258 1.64394 38.0737 1.47727C37.9216 1.31061 37.688 1.22727 37.3729 1.22727C36.9708 1.22727 36.6666 1.35354 36.4601 1.60606C36.2537 1.85859 36.1505 2.22222 36.1505 2.69697C36.1505 3.18182 36.2727 3.63636 36.5172 4.06061C36.7617 4.48485 37.0632 4.88131 37.4218 5.25C37.7803 5.61869 38.1389 5.97222 38.4975 6.31061C38.856 6.64899 39.1576 6.98232 39.402 7.31061L39.4717 7.40902C39.6037 7.60568 39.6918 7.80144 39.7358 7.99629L39.7507 8.07576H42.1647C42.4146 8.07576 42.6075 8.12374 42.7433 8.2197C42.8791 8.31566 42.947 8.46465 42.947 8.66667C42.947 8.9697 42.8058 9.21717 42.5232 9.40909C42.2407 9.60101 41.7952 9.69697 41.1868 9.69697H40.0295V19.1364C40.0295 19.4192 40.0757 19.6364 40.1681 19.7879C40.2604 19.9394 40.4098 20.0303 40.6163 20.0606L42.018 20.2576C42.2679 20.2879 42.4526 20.3611 42.5721 20.4773C42.6917 20.5934 42.7514 20.7525 42.7514 20.9545ZM10.6593 21.3031C9.68141 21.7374 8.54051 21.9546 7.23661 21.9546C5.85666 21.9546 4.62067 21.6869 3.52866 21.1515C2.43665 20.6162 1.57554 19.8409 0.945323 18.8258C0.315108 17.8106 0 16.5758 0 15.1212C0 13.7172 0.32869 12.4622 0.98607 11.3561C1.64345 10.25 2.55889 9.37629 3.7324 8.73488C4.9059 8.09346 6.27499 7.77276 7.83966 7.77276C9.17615 7.77276 10.3035 7.95457 11.2216 8.31821C12.1398 8.68185 12.8406 9.17427 13.3242 9.79548C13.8077 10.4167 14.0495 11.1111 14.0495 11.8788C14.0495 12.6869 13.7968 13.3207 13.2916 13.7803C12.7863 14.2399 12.099 14.4697 11.2298 14.4697C10.3388 14.4697 9.6624 14.2349 9.2006 13.7652C8.73881 13.2955 8.50791 12.6515 8.50791 11.8334V10.8637C8.50791 10.3687 8.41012 9.99498 8.21453 9.74245C8.01895 9.48993 7.74187 9.36367 7.3833 9.36367C7.02473 9.36367 6.70147 9.4975 6.41353 9.76518C6.12559 10.0329 5.90284 10.4344 5.74528 10.9697C5.58773 11.5051 5.50895 12.1667 5.50895 12.9546C5.50895 14.0859 5.69095 15.0354 6.05496 15.8031C6.41896 16.5707 6.91607 17.1465 7.54629 17.5303C8.1765 17.9142 8.89364 18.1061 9.69771 18.1061C10.5018 18.1061 11.1755 17.9975 11.7187 17.7803C12.262 17.5632 12.6804 17.197 12.9737 16.6818C13.1367 16.5404 13.2644 16.4495 13.3568 16.4091C13.4491 16.3687 13.5388 16.3485 13.6257 16.3485C13.7344 16.3586 13.824 16.4066 13.8946 16.4925C13.9652 16.5783 13.9951 16.7122 13.9843 16.894C13.8973 17.8839 13.5659 18.7576 12.99 19.5152C12.4142 20.2728 11.6373 20.8687 10.6593 21.3031ZM27.227 21C26.0046 21.6162 24.5839 21.9243 22.9649 21.9243C21.3893 21.9243 20.0066 21.6238 18.8168 21.0228C17.627 20.4217 16.7007 19.5909 16.0379 18.5303C15.3751 17.4697 15.0437 16.2425 15.0437 14.8485C15.0437 13.5152 15.3914 12.3157 16.0868 11.25C16.7822 10.1844 17.7438 9.33841 18.9717 8.71215C20.1995 8.08589 21.6121 7.77276 23.2093 7.77276C24.7957 7.77276 26.1811 8.07579 27.3655 8.68185C28.5499 9.28791 29.4735 10.1263 30.1363 11.197C30.7991 12.2677 31.1305 13.5051 31.1305 14.9091C31.1305 16.2425 30.7855 17.4369 30.0955 18.4925C29.4056 19.548 28.4494 20.3839 27.227 21ZM24.2035 20.3485C23.8667 20.4091 23.538 20.2727 23.2175 19.9394C22.8969 19.606 22.5927 19.0454 22.3047 18.2575C22.0168 17.4697 21.7424 16.4343 21.4817 15.1515C21.2317 13.8687 21.0905 12.8131 21.0579 11.9848C21.0253 11.1565 21.0905 10.5303 21.2535 10.106C21.4165 9.68179 21.6664 9.43431 22.0032 9.36361C22.3401 9.303 22.6687 9.43936 22.9893 9.7727C23.3098 10.106 23.6168 10.6666 23.9102 11.4545C24.2035 12.2424 24.4806 13.2777 24.7414 14.5606C25.0022 15.8434 25.1461 16.9015 25.1733 17.7348C25.2005 18.5682 25.1298 19.1969 24.9614 19.6212C24.793 20.0454 24.5404 20.2878 24.2035 20.3485ZM53.3619 21.6515C53.8726 21.6515 54.1279 21.4192 54.1279 20.9545C54.1279 20.7525 54.0681 20.5934 53.9486 20.4773C53.8291 20.3611 53.6444 20.2879 53.3945 20.2576L51.9928 20.0606C51.7863 20.0303 51.6369 19.9394 51.5446 19.7879C51.4522 19.6364 51.406 19.4192 51.406 19.1364V9.69697H52.5632C53.1717 9.69697 53.6172 9.60101 53.8997 9.40909C54.1822 9.21717 54.3235 8.9697 54.3235 8.66667C54.3235 8.46465 54.2556 8.31566 54.1198 8.2197C53.9839 8.12374 53.7911 8.07576 53.5411 8.07576H51.1271L51.1122 7.99629C51.0682 7.80144 50.9802 7.60568 50.8482 7.40902L50.7785 7.31061C50.534 6.98232 50.2325 6.64899 49.8739 6.31061C49.5154 5.97222 49.1568 5.61869 48.7982 5.25C48.4397 4.88131 48.1381 4.48485 47.8937 4.06061C47.6492 3.63636 47.5269 3.18182 47.5269 2.69697C47.5269 2.22222 47.6302 1.85859 47.8366 1.60606C48.0431 1.35354 48.3473 1.22727 48.7493 1.22727C49.0644 1.22727 49.2981 1.31061 49.4502 1.47727C49.6023 1.64394 49.6784 1.90404 49.6784 2.25758V3.60606C49.6784 4.37374 49.9174 4.9899 50.3955 5.45455C50.8736 5.91919 51.5038 6.15152 52.2862 6.15152C52.9924 6.15152 53.571 5.95202 54.022 5.55303C54.4729 5.15404 54.6984 4.55556 54.6984 3.75758C54.6984 3.08081 54.5082 2.45707 54.1279 1.88636C53.7476 1.31566 53.1744 0.858586 52.4084 0.515152C51.6424 0.171717 50.678 0 49.5154 0C47.7117 0 46.3208 0.396465 45.3429 1.18939C44.365 1.98232 43.876 3.0404 43.876 4.36364C43.876 4.91919 43.9575 5.38636 44.1205 5.76515C44.2835 6.14394 44.4682 6.4697 44.6747 6.74242C44.8811 7.01515 45.0658 7.2601 45.2288 7.47727C45.3511 7.64015 45.4275 7.81013 45.458 7.98722L45.4692 8.07576H44.039C43.8299 8.07576 43.6602 8.12023 43.5301 8.20916L43.4767 8.25C43.3409 8.36616 43.273 8.51515 43.273 8.69697C43.273 8.87879 43.3273 9.03283 43.436 9.15909C43.5446 9.28535 43.7239 9.40404 43.9738 9.51515L44.9192 9.80303C45.1256 9.88384 45.2669 9.97222 45.3429 10.0682C45.419 10.1641 45.457 10.2828 45.457 10.4242V19.1818C45.457 19.4444 45.4081 19.6465 45.3103 19.7879C45.2125 19.9293 45.0767 20.0253 44.9029 20.0758L44.202 20.2727C44.0064 20.3434 43.8625 20.4343 43.7701 20.5455C43.6777 20.6566 43.6316 20.803 43.6316 20.9848C43.6316 21.197 43.6995 21.3611 43.8353 21.4773C43.9711 21.5934 44.1477 21.6515 44.365 21.6515H53.3619ZM66.1237 21.2122C65.0697 21.7071 63.8528 21.9546 62.4728 21.9546C60.9516 21.9546 59.6151 21.6642 58.4633 21.0834C57.3116 20.5026 56.4124 19.6894 55.7659 18.644C55.1194 17.5985 54.7961 16.3889 54.7961 15.0152C54.7961 13.5707 55.1085 12.3056 55.7333 11.2197C56.3581 10.1339 57.2627 9.28791 58.447 8.68185C59.6314 8.07579 61.0548 7.77276 62.7173 7.77276C64.1299 7.77276 65.3468 8.02781 66.3682 8.53791C67.3896 9.04801 68.1746 9.73993 68.7234 10.6137C69.2721 11.4874 69.5464 12.4596 69.5464 13.5303C69.5464 13.995 69.4106 14.3611 69.139 14.6288L69.0742 14.6882C68.8064 14.9163 68.4369 15.0303 67.9655 15.0303H60.5147L60.5307 15.1002C60.7284 15.9321 61.0661 16.5982 61.5438 17.0985C62.3587 17.952 63.4453 18.3788 64.8035 18.3788C65.6728 18.3788 66.4415 18.197 67.1098 17.8334C67.778 17.4697 68.2262 16.9647 68.4544 16.3182C68.5848 16.1869 68.7016 16.0985 68.8049 16.0531C68.9081 16.0076 68.9977 15.9849 69.0738 15.9849C69.1824 15.9849 69.2748 16.0253 69.3509 16.1061C69.4269 16.1869 69.465 16.3233 69.465 16.5152C69.465 17.5051 69.1716 18.4116 68.5848 19.2349C67.9981 20.0581 67.1777 20.7172 66.1237 21.2122ZM60.3447 13.8157C60.3292 13.5833 60.3214 13.3417 60.3214 13.0909C60.3214 12.1414 60.3975 11.394 60.5496 10.8485C60.7017 10.303 60.8973 9.91668 61.1363 9.68941C61.3754 9.46214 61.6416 9.3485 61.935 9.3485C62.3153 9.3485 62.6711 9.64648 63.0025 10.2424C63.334 10.8384 63.4997 11.8283 63.4997 13.2121C63.4997 13.6364 63.2932 13.8485 62.8803 13.8485H60.3468L60.3447 13.8157ZM81.7053 21.2122C80.6513 21.7071 79.4343 21.9546 78.0544 21.9546C76.5331 21.9546 75.1967 21.6642 74.0449 21.0834C72.8931 20.5026 71.994 19.6894 71.3475 18.644C70.7009 17.5985 70.3777 16.3889 70.3777 15.0152C70.3777 13.5707 70.6901 12.3056 71.3149 11.2197C71.9396 10.1339 72.8442 9.28791 74.0286 8.68185C75.213 8.07579 76.6364 7.77276 78.2988 7.77276C79.7114 7.77276 80.9284 8.02781 81.9497 8.53791C82.9711 9.04801 83.7562 9.73993 84.3049 10.6137C84.8536 11.4874 85.128 12.4596 85.128 13.5303C85.128 13.995 84.9922 14.3611 84.7205 14.6288L84.6557 14.6882C84.388 14.9163 84.0184 15.0303 83.547 15.0303H76.0963L76.1122 15.1002C76.3099 15.9321 76.6476 16.5982 77.1253 17.0985C77.9403 17.952 79.0268 18.3788 80.3851 18.3788C81.2543 18.3788 82.0231 18.197 82.6913 17.8334C83.3596 17.4697 83.8078 16.9647 84.036 16.3182C84.1664 16.1869 84.2832 16.0985 84.3864 16.0531C84.4896 16.0076 84.5793 15.9849 84.6553 15.9849C84.764 15.9849 84.8563 16.0253 84.9324 16.1061C85.0085 16.1869 85.0465 16.3233 85.0465 16.5152C85.0465 17.5051 84.7531 18.4116 84.1664 19.2349C83.5796 20.0581 82.7592 20.7172 81.7053 21.2122ZM75.9262 13.8157C75.9107 13.5833 75.903 13.3417 75.903 13.0909C75.903 12.1414 75.979 11.394 76.1311 10.8485C76.2833 10.303 76.4788 9.91668 76.7179 9.68941C76.9569 9.46214 77.2231 9.3485 77.5165 9.3485C77.8968 9.3485 78.2527 9.64648 78.5841 10.2424C78.9155 10.8384 79.0812 11.8283 79.0812 13.2121C79.0812 13.6364 78.8747 13.8485 78.4618 13.8485H75.9283L75.9262 13.8157ZM95.5999 21.4622C95.4641 21.5884 95.2658 21.6515 95.005 21.6515H86.8556C86.6166 21.6515 86.4292 21.5909 86.2933 21.4697C86.1575 21.3485 86.0896 21.1818 86.0896 20.9697C86.0896 20.8081 86.1304 20.6743 86.2118 20.5682C86.2933 20.4621 86.4047 20.3637 86.546 20.2728L86.9208 20.1364C87.0621 20.0758 87.1599 19.9798 87.2142 19.8485C87.2685 19.7172 87.2957 19.5 87.2957 19.197V11.5C87.2957 11.2576 87.2658 11.0834 87.2061 10.9773C87.1463 10.8712 87.0458 10.7879 86.9045 10.7273L86.4808 10.6818C86.3287 10.601 86.2173 10.5152 86.1467 10.4243C86.076 10.3334 86.0407 10.2172 86.0407 10.0758C86.0407 9.91417 86.095 9.77023 86.2037 9.64397C86.3124 9.51771 86.4971 9.40912 86.7579 9.31821L91.3867 8.09094C91.6583 7.98993 91.8865 7.91922 92.0712 7.87882C92.2559 7.83841 92.4135 7.81821 92.5439 7.81821C92.7286 7.81821 92.8671 7.87882 92.9595 8.00003L92.9892 8.04399C93.0654 8.17069 93.118 8.37321 93.1469 8.65154L93.271 11.0059L93.2993 10.919C93.3544 10.755 93.415 10.5977 93.4811 10.447C93.8777 9.54296 94.4019 8.87124 95.0539 8.43185C95.7058 7.99245 96.4175 7.77276 97.189 7.77276C98.1235 7.77276 98.8406 8.06063 99.3404 8.63639C99.8403 9.21215 100.09 10.0859 100.09 11.2576C100.09 12.4192 99.8294 13.2728 99.3078 13.8182C98.7863 14.3637 98.1126 14.6364 97.2868 14.6364C96.4827 14.6364 95.8878 14.4495 95.5021 14.0758C95.1164 13.702 94.9126 13.1717 94.8909 12.4849L94.8746 11.8788C94.8637 11.6465 94.8148 11.4647 94.7279 11.3334C94.641 11.202 94.4997 11.1364 94.3041 11.1364C94.1086 11.1364 93.9374 11.2298 93.7907 11.4167C93.644 11.6036 93.5327 11.8889 93.4566 12.2728C93.3805 12.6566 93.3425 13.1465 93.3425 13.7425V19.0758C93.3425 19.3586 93.3914 19.5834 93.4892 19.75C93.587 19.9167 93.7391 20.0202 93.9456 20.0606L95.168 20.2879C95.3961 20.3182 95.5591 20.3965 95.6569 20.5228C95.7547 20.649 95.8036 20.798 95.8036 20.9697C95.8036 21.1717 95.7357 21.3359 95.5999 21.4622ZM108.631 21.9243C110.25 21.9243 111.67 21.6162 112.893 21C114.115 20.3839 115.071 19.548 115.761 18.4925C116.451 17.4369 116.796 16.2425 116.796 14.9091C116.796 13.5051 116.465 12.2677 115.802 11.197C115.139 10.1263 114.216 9.28791 113.031 8.68185C111.847 8.07579 110.462 7.77276 108.875 7.77276C107.278 7.77276 105.865 8.08589 104.637 8.71215C103.41 9.33841 102.448 10.1844 101.753 11.25C101.057 12.3157 100.71 13.5152 100.71 14.8485C100.71 16.2425 101.041 17.4697 101.704 18.5303C102.367 19.5909 103.293 20.4217 104.483 21.0228C105.672 21.6238 107.055 21.9243 108.631 21.9243ZM108.883 19.9394C109.204 20.2727 109.533 20.4091 109.869 20.3485C110.206 20.2878 110.459 20.0454 110.627 19.6212C110.796 19.1969 110.866 18.5682 110.839 17.7348C110.812 16.9015 110.668 15.8434 110.407 14.5606C110.146 13.2777 109.869 12.2424 109.576 11.4545C109.283 10.6666 108.976 10.106 108.655 9.7727C108.335 9.43936 108.006 9.303 107.669 9.36361C107.332 9.43431 107.082 9.68179 106.919 10.106C106.756 10.5303 106.691 11.1565 106.724 11.9848C106.756 12.8131 106.898 13.8687 107.147 15.1515C107.408 16.4343 107.683 17.4697 107.971 18.2575C108.259 19.0454 108.563 19.606 108.883 19.9394ZM129.721 21.9546C130.634 21.9546 131.384 21.8005 131.97 21.4925C132.557 21.1844 132.994 20.8182 133.282 20.394C133.57 19.9697 133.714 19.5808 133.714 19.2273C133.714 19.0758 133.679 18.9495 133.608 18.8485C133.538 18.7475 133.443 18.697 133.323 18.697C133.269 18.697 133.22 18.7071 133.176 18.7273C133.133 18.7475 133.095 18.7778 133.062 18.8182C133.008 19 132.924 19.1263 132.81 19.197C132.696 19.2677 132.573 19.3031 132.443 19.3031C132.258 19.3031 132.12 19.245 132.027 19.1288C131.935 19.0127 131.889 18.8586 131.889 18.6667V11.9697C131.889 10.6364 131.397 9.60356 130.414 8.87124C129.431 8.13892 127.89 7.77276 125.793 7.77276C124.163 7.77276 122.802 7.95962 121.71 8.33336C120.618 8.7071 119.798 9.18437 119.249 9.76518C118.701 10.346 118.426 10.9394 118.426 11.5455C118.426 12.1919 118.63 12.6844 119.037 13.0228C119.445 13.3611 120.034 13.5303 120.806 13.5303C121.751 13.5303 122.495 13.2955 123.039 12.8258C123.582 12.3561 123.854 11.7475 123.854 11V9.84851C123.854 9.56569 123.949 9.34599 124.139 9.18942C124.329 9.03286 124.565 8.95457 124.848 8.95457C125.152 8.95457 125.394 9.05811 125.573 9.26518C125.752 9.47225 125.842 9.75255 125.842 10.1061L125.842 14.5228L125.755 14.5055C125.493 14.4591 125.189 14.4326 124.844 14.4259L124.669 14.4243C122.332 14.4243 120.591 14.7879 119.445 15.5152C118.299 16.2425 117.725 17.2576 117.725 18.5606C117.725 19.5505 118.119 20.3637 118.907 21C119.695 21.6364 120.741 21.9546 122.044 21.9546C123.022 21.9546 123.935 21.7702 124.783 21.4015C125.418 21.125 125.935 20.7619 126.332 20.3121L126.355 20.2858L126.379 20.3536C126.504 20.6811 126.733 20.9745 127.067 21.2339L127.17 21.3106C127.773 21.7399 128.624 21.9546 129.721 21.9546ZM124.106 19.0985C124.372 19.4268 124.723 19.5909 125.158 19.5909L125.251 19.588C125.436 19.5762 125.615 19.5288 125.789 19.4459L125.842 19.4184V15.5303L125.761 15.5076C125.576 15.4622 125.359 15.4394 125.109 15.4394C124.685 15.4394 124.345 15.6213 124.09 15.9849C123.835 16.3485 123.707 16.8839 123.707 17.5909C123.707 18.2677 123.84 18.7702 124.106 19.0985ZM141.212 22C143.146 22 144.629 21.5909 145.661 20.7728C146.694 19.9546 147.21 18.8384 147.21 17.4243C147.21 16.5657 147.036 15.8132 146.688 15.1667C146.34 14.5202 145.732 13.947 144.863 13.447C143.993 12.947 142.771 12.4748 141.195 12.0303C140.609 11.8586 140.155 11.6844 139.834 11.5076C139.514 11.3308 139.294 11.1414 139.174 10.9394C139.055 10.7374 138.995 10.5202 138.995 10.2879C138.995 9.94447 139.131 9.6667 139.403 9.45457C139.674 9.24245 140.076 9.13639 140.609 9.13639C141.348 9.13639 142.046 9.36367 142.703 9.81821C143.36 10.2728 144.086 11.0505 144.879 12.1515C145.085 12.3839 145.292 12.5531 145.498 12.6591C145.705 12.7652 145.9 12.798 146.085 12.7576C146.313 12.697 146.454 12.5581 146.509 12.3409C146.563 12.1238 146.552 11.8132 146.476 11.4091L146.052 8.62124C146.009 8.32831 145.927 8.12124 145.808 8.00003C145.688 7.87882 145.531 7.81821 145.335 7.81821C145.161 7.81821 144.944 7.87377 144.683 7.98488C144.423 8.09599 144.165 8.20962 143.909 8.32579C143.654 8.44195 143.461 8.50003 143.331 8.50003C143.211 8.50003 143.034 8.43942 142.801 8.31821C142.567 8.197 142.239 8.07579 141.815 7.95457C141.391 7.83336 140.842 7.77276 140.169 7.77276C139.049 7.77276 138.042 7.95962 137.145 8.33336C136.249 8.7071 135.543 9.23993 135.026 9.93185C134.51 10.6238 134.252 11.4495 134.252 12.4091C134.252 13.2576 134.445 14 134.831 14.6364C135.217 15.2728 135.806 15.8182 136.599 16.2728C137.392 16.7273 138.392 17.096 139.598 17.3788C140.38 17.5707 140.981 17.7652 141.399 17.9622C141.818 18.1591 142.105 18.3738 142.263 18.6061C142.421 18.8384 142.499 19.096 142.499 19.3788C142.499 19.7526 142.364 20.0606 142.092 20.3031C141.82 20.5455 141.407 20.6667 140.853 20.6667C140.332 20.6667 139.834 20.5632 139.362 20.3561C138.889 20.149 138.403 19.793 137.903 19.2879C137.403 18.7829 136.844 18.0909 136.224 17.2122C136.04 16.9798 135.83 16.8182 135.597 16.7273C135.363 16.6364 135.127 16.6414 134.888 16.7425C134.66 16.8233 134.513 16.995 134.448 17.2576C134.383 17.5202 134.399 17.8435 134.497 18.2273L135.002 21.2425C135.078 21.5455 135.187 21.7475 135.328 21.8485C135.469 21.9495 135.621 22 135.784 22C135.969 22 136.194 21.9445 136.461 21.8334L137.259 21.5C137.526 21.3889 137.74 21.3334 137.903 21.3334C138.066 21.3334 138.281 21.3889 138.547 21.5C138.813 21.6111 139.161 21.7223 139.59 21.8334C140.019 21.9445 140.56 22 141.212 22ZM156.663 21.4318C155.946 21.7803 155.098 21.9546 154.12 21.9546C152.469 21.9546 151.227 21.5859 150.396 20.8485C149.565 20.1111 149.149 18.9495 149.149 17.3637V10.5152C149.149 10.303 149.127 10.1414 149.084 10.0303C149.041 9.91921 148.932 9.8283 148.758 9.75759L147.992 9.53032C147.807 9.44951 147.688 9.35102 147.633 9.23486C147.579 9.1187 147.552 8.97476 147.552 8.80305C147.552 8.59092 147.633 8.41668 147.796 8.28032C147.959 8.14395 148.16 8.07577 148.399 8.07577H149.198C149.296 8.07577 149.399 8.04042 149.508 7.96971C149.616 7.899 149.763 7.75759 149.948 7.54547L152.963 5.22729C153.18 4.98486 153.398 4.80052 153.615 4.67426C153.832 4.54799 154.05 4.48486 154.267 4.48486C154.517 4.48486 154.712 4.55557 154.854 4.69698L154.898 4.74712C155.01 4.88878 155.066 5.09429 155.066 5.36365L155.065 8.07577H158.472C158.711 8.07577 158.896 8.12375 159.026 8.21971C159.157 8.31567 159.222 8.46466 159.222 8.66668C159.222 8.94951 159.086 9.19193 158.814 9.39395L158.754 9.4357C158.48 9.60989 158.065 9.69698 157.51 9.69698H155.065L155.066 16.6061C155.066 17.3637 155.204 17.9243 155.481 18.2879C155.758 18.6515 156.163 18.8333 156.695 18.8333C156.924 18.8333 157.136 18.7879 157.331 18.697C157.527 18.6061 157.703 18.4874 157.861 18.3409C158.018 18.1945 158.168 18.0303 158.309 17.8485C158.45 17.6667 158.586 17.4849 158.717 17.303C158.825 17.2626 158.92 17.2803 159.002 17.3561C159.083 17.4318 159.119 17.5859 159.108 17.8182C159.032 18.6364 158.784 19.3561 158.366 19.9773C157.948 20.5985 157.38 21.0833 156.663 21.4318ZM167.338 21.9546C168.718 21.9546 169.935 21.7071 170.989 21.2122C172.043 20.7172 172.864 20.0581 173.45 19.2349C174.037 18.4116 174.331 17.5051 174.331 16.5152C174.331 16.3233 174.293 16.1869 174.217 16.1061C174.14 16.0253 174.048 15.9849 173.939 15.9849C173.863 15.9849 173.774 16.0076 173.671 16.0531C173.567 16.0985 173.45 16.1869 173.32 16.3182C173.092 16.9647 172.644 17.4697 171.975 17.8334C171.307 18.197 170.538 18.3788 169.669 18.3788C168.311 18.3788 167.224 17.952 166.409 17.0985C165.932 16.5982 165.594 15.9321 165.396 15.1002L165.38 15.0303H172.831C173.303 15.0303 173.672 14.9163 173.94 14.6882L174.005 14.6288C174.276 14.3611 174.412 13.995 174.412 13.5303C174.412 12.4596 174.138 11.4874 173.589 10.6137C173.04 9.73993 172.255 9.04801 171.234 8.53791C170.212 8.02781 168.996 7.77276 167.583 7.77276C165.921 7.77276 164.497 8.07579 163.313 8.68185C162.128 9.28791 161.224 10.1339 160.599 11.2197C159.974 12.3056 159.662 13.5707 159.662 15.0152C159.662 16.3889 159.985 17.5985 160.632 18.644C161.278 19.6894 162.177 20.5026 163.329 21.0834C164.481 21.6642 165.817 21.9546 167.338 21.9546ZM165.187 13.0909C165.187 13.3417 165.195 13.5833 165.21 13.8157L165.212 13.8485H167.746C168.159 13.8485 168.365 13.6364 168.365 13.2121C168.365 11.8283 168.2 10.8384 167.868 10.2424C167.537 9.64648 167.181 9.3485 166.801 9.3485C166.507 9.3485 166.241 9.46214 166.002 9.68941C165.763 9.91668 165.567 10.303 165.415 10.8485C165.263 11.394 165.187 12.1414 165.187 13.0909ZM184.289 21.6515C184.55 21.6515 184.748 21.5884 184.884 21.4622C185.02 21.3359 185.088 21.1717 185.088 20.9697C185.088 20.798 185.039 20.649 184.941 20.5228C184.843 20.3965 184.68 20.3182 184.452 20.2879L183.23 20.0606C183.023 20.0202 182.871 19.9167 182.773 19.75C182.676 19.5834 182.627 19.3586 182.627 19.0758V13.7425C182.627 13.1465 182.665 12.6566 182.741 12.2728C182.817 11.8889 182.928 11.6036 183.075 11.4167C183.222 11.2298 183.393 11.1364 183.588 11.1364C183.784 11.1364 183.925 11.202 184.012 11.3334C184.099 11.4647 184.148 11.6465 184.159 11.8788L184.175 12.4849C184.197 13.1717 184.4 13.702 184.786 14.0758C185.172 14.4495 185.767 14.6364 186.571 14.6364C187.397 14.6364 188.07 14.3637 188.592 13.8182C189.114 13.2728 189.374 12.4192 189.374 11.2576C189.374 10.0859 189.124 9.21215 188.625 8.63639C188.125 8.06063 187.408 7.77276 186.473 7.77276C185.702 7.77276 184.99 7.99245 184.338 8.43185C183.686 8.87124 183.162 9.54296 182.765 10.447C182.699 10.5977 182.638 10.755 182.583 10.919L182.555 11.0063L182.431 8.65154C182.402 8.37321 182.349 8.17069 182.273 8.04399L182.244 8.00003C182.151 7.87882 182.013 7.81821 181.828 7.81821C181.698 7.81821 181.54 7.83841 181.355 7.87882C181.171 7.91922 180.942 7.98993 180.671 8.09094L176.042 9.31821C175.781 9.40912 175.596 9.51771 175.488 9.64397C175.379 9.77023 175.325 9.91417 175.325 10.0758C175.325 10.2172 175.36 10.3334 175.431 10.4243C175.501 10.5152 175.613 10.601 175.765 10.6818L176.189 10.7273C176.33 10.7879 176.43 10.8712 176.49 10.9773C176.55 11.0834 176.58 11.2576 176.58 11.5V19.197C176.58 19.5 176.553 19.7172 176.498 19.8485C176.444 19.9798 176.346 20.0758 176.205 20.1364L175.83 20.2728C175.689 20.3637 175.577 20.4621 175.496 20.5682C175.414 20.6743 175.374 20.8081 175.374 20.9697C175.374 21.1818 175.442 21.3485 175.577 21.4697C175.713 21.5909 175.901 21.6515 176.14 21.6515H184.289ZM201.452 20.7728C200.419 21.5909 198.936 22 197.002 22C196.35 22 195.81 21.9445 195.38 21.8334C194.951 21.7223 194.603 21.6111 194.337 21.5C194.071 21.3889 193.856 21.3334 193.693 21.3334C193.53 21.3334 193.316 21.3889 193.05 21.5L192.251 21.8334C191.985 21.9445 191.759 22 191.575 22C191.412 22 191.26 21.9495 191.118 21.8485C190.977 21.7475 190.868 21.5455 190.792 21.2425L190.287 18.2273C190.189 17.8435 190.173 17.5202 190.238 17.2576C190.303 16.995 190.45 16.8233 190.678 16.7425C190.917 16.6414 191.154 16.6364 191.387 16.7273C191.621 16.8182 191.83 16.9798 192.015 17.2122C192.634 18.0909 193.194 18.7829 193.693 19.2879C194.193 19.793 194.68 20.149 195.152 20.3561C195.625 20.5632 196.122 20.6667 196.644 20.6667C197.198 20.6667 197.611 20.5455 197.882 20.3031C198.154 20.0606 198.29 19.7526 198.29 19.3788C198.29 19.096 198.211 18.8384 198.053 18.6061C197.896 18.3738 197.608 18.1591 197.19 17.9622C196.771 17.7652 196.171 17.5707 195.389 17.3788C194.182 17.096 193.183 16.7273 192.39 16.2728C191.596 15.8182 191.007 15.2728 190.621 14.6364C190.235 14 190.043 13.2576 190.043 12.4091C190.043 11.4495 190.301 10.6238 190.817 9.93185C191.333 9.23993 192.039 8.7071 192.936 8.33336C193.832 7.95962 194.84 7.77276 195.959 7.77276C196.633 7.77276 197.181 7.83336 197.605 7.95457C198.029 8.07579 198.358 8.197 198.591 8.31821C198.825 8.43942 199.001 8.50003 199.121 8.50003C199.251 8.50003 199.444 8.44195 199.7 8.32579C199.955 8.20962 200.213 8.09599 200.474 7.98488C200.734 7.87377 200.952 7.81821 201.126 7.81821C201.321 7.81821 201.479 7.87882 201.598 8.00003C201.718 8.12124 201.799 8.32831 201.843 8.62124L202.267 11.4091C202.343 11.8132 202.353 12.1238 202.299 12.3409C202.245 12.5581 202.104 12.697 201.875 12.7576C201.691 12.798 201.495 12.7652 201.289 12.6591C201.082 12.5531 200.876 12.3839 200.669 12.1515C199.876 11.0505 199.151 10.2728 198.493 9.81821C197.836 9.36367 197.138 9.13639 196.399 9.13639C195.867 9.13639 195.465 9.24245 195.193 9.45457C194.921 9.6667 194.785 9.94447 194.785 10.2879C194.785 10.5202 194.845 10.7374 194.965 10.9394C195.084 11.1414 195.304 11.3308 195.625 11.5076C195.945 11.6844 196.399 11.8586 196.986 12.0303C198.561 12.4748 199.784 12.947 200.653 13.447C201.522 13.947 202.131 14.5202 202.478 15.1667C202.826 15.8132 203 16.5657 203 17.4243C203 18.8384 202.484 19.9546 201.452 20.7728Z" fill="#333D4B"/>
</svg>
